<svg width="267" height="66" viewBox="0 0 267 66" fill="none" xmlns="http://www.w3.org/2000/svg">
<g style="mix-blend-mode:soft-light" opacity="0.5">
<path d="M-14 65.07H92.3C92.3 65.07 84.7 41.77 71.9 45.17C59.1 48.47 59.6 51.37 59.6 51.37C59.6 51.37 55.8 31.47 38.7 34.27C21.6 37.07 17.8 50.87 17.8 50.87C17.8 50.87 6.90001 46.57 2.10001 50.87C-2.59999 55.17 -1.69998 57.47 -1.69998 57.47C-1.69998 57.47 -12.1 52.77 -14 65.07Z" fill="white"/>
</g>
<g style="mix-blend-mode:soft-light" opacity="0.8">
<path d="M267 22.2161C265.8 18.8161 263.1 12.9161 258.9 11.5161C252.9 9.51607 244 16.1161 244 16.1161C244 16.1161 239.7 0.616071 225.3 0.0160709C210.9 -0.583929 213.5 15.8161 213.5 15.8161C213.5 15.8161 209.8 14.7161 202.3 12.4161C194.8 10.1161 192.2 17.0161 192.2 17.0161C187.5 15.3161 185.6 19.8161 185 22.2161H267Z" fill="white"/>
</g>
</svg>
