<?xml version="1.0" ?><!DOCTYPE svg  PUBLIC '-//W3C//DTD SVG 1.1//EN'  'http://www.w3.org/Graphics/SVG/1.1/DTD/svg11.dtd'><svg enable-background="new 0 0 64 64" height="64px" id="Layer_1" version="1.1" viewBox="0 0 64 64" width="64px" xml:space="preserve" xmlns="http://www.w3.org/2000/svg" xmlns:xlink="http://www.w3.org/1999/xlink"><g><path d="M28.47,27.524c0.007-0.76,0.014-1.521,0.005-2.281c-0.003-0.264-0.002-0.528-0.001-0.793   c0.003-1.064,0.007-2.165-0.235-3.295c-0.406-1.896-0.895-2.472-2.976-2.152c-0.012,0.002-0.026-0.001-0.038,0   c-0.01-0.372-0.012-0.744-0.024-1.116c-0.057-1.6-0.519-2.677-1.375-3.202c-0.421-0.257-1.099-0.459-2.063-0.178   c-0.182-0.382-0.451-0.684-0.666-0.922c-0.092-0.103-0.184-0.203-0.267-0.31c-0.399-0.511-1.212-0.796-1.995-0.347   c-0.994,0.569-1.717,1.53-2.105,2.755c-1.58-0.598-2.085-0.062-2.851,1.351l-0.147,0.271c-0.591,1.076-0.802,2.152-0.61,3.112   c0.183,0.909,0.128,1.838,0.069,2.822c-0.033,0.576-0.068,1.172-0.054,1.771c0.003,0.114-0.021,0.239-0.028,0.357   c-0.769-0.272-1.5-0.401-2.133-0.022c-0.828,0.496-1.05,1.65-1.156,2.715l-0.045,0.391c-0.043,0.364-0.089,0.741-0.083,1.133   c0.006,0.575-0.113,1.151-0.24,1.762c-0.097,0.466-0.196,0.947-0.241,1.446c-0.121,1.363,0.295,2.629,0.697,3.853l0.204,0.63   c0.489,1.543,1.236,3.021,2.222,4.391c2.043,2.84,2.547,5.504,1.585,8.386c-0.066,0.199-0.051,0.378-0.041,0.495   c0,0.414,0.336,0.75,0.75,0.75s0.75-0.336,0.75-0.75c0-0.034-0.002-0.069-0.005-0.116c1.069-3.296,0.474-6.45-1.82-9.64   c-0.893-1.242-1.569-2.577-2.01-3.967l-0.21-0.647c-0.371-1.129-0.722-2.195-0.628-3.25c0.037-0.412,0.124-0.831,0.216-1.275   c0.138-0.661,0.279-1.346,0.271-2.085c-0.004-0.294,0.033-0.606,0.073-0.936l0.047-0.42c0.134-1.334,0.386-1.548,0.435-1.577   c0.09-0.054,0.369-0.046,1.137,0.252l0,0c-0.124,0.604-0.253,1.229-0.285,1.871l-0.037,0.638c-0.069,1.101-0.141,2.239,0.172,3.393   c0.532,1.965,1.962,3.437,4.369,4.496c0.742,0.328,1.261,0.821,1.858,1.392c0.001,0.015,0.002,0.03,0.004,0.045   c0.009,0.109,0.02,0.218,0.04,0.315c0.073,0.354,0.386,0.598,0.733,0.598c0.051,0,0.102-0.005,0.153-0.016   c0.405-0.084,0.666-0.48,0.582-0.887c-0.009-0.041-0.011-0.088-0.015-0.135c-0.021-0.246-0.051-0.618-0.348-0.896l-0.105-0.101   c-0.645-0.615-1.312-1.252-2.298-1.688c-1.994-0.878-3.115-1.996-3.527-3.517c-0.247-0.913-0.187-1.882-0.122-2.906l0.038-0.658   c0.026-0.525,0.138-1.067,0.257-1.641c0.147-0.72,0.302-1.463,0.284-2.214c-0.014-0.538,0.018-1.077,0.052-1.647   c0.061-1.035,0.124-2.106-0.097-3.204c-0.153-0.77,0.162-1.565,0.454-2.097l0.15-0.276c0.194-0.357,0.414-0.763,0.487-0.821   c0.042-0.013,0.227,0.018,0.755,0.251c-0.105,1.004-0.094,2.051-0.076,3.07l0.007,0.426c0.039,2.838,0.084,5.681,0.129,8.52   c0.007,0.414,0.339,0.744,0.762,0.738c0.414-0.007,0.745-0.348,0.738-0.762c-0.045-2.839-0.09-5.68-0.129-8.519l-0.008-0.43   c-0.02-1.098-0.039-2.233,0.104-3.241c0.104-0.742,0.451-2.087,1.682-2.786c0.103,0.133,0.218,0.262,0.334,0.391   c0.4,0.445,0.534,0.629,0.467,0.937c-0.527,2.404-0.496,4.771-0.406,7.391c0.006,0.19,0.064,0.343,0.12,0.471   c0.004,0.406,0.003,0.813,0.002,1.221c-0.004,1.538-0.008,3.128,0.277,4.711c0.065,0.363,0.382,0.617,0.737,0.617   c0.044,0,0.089-0.004,0.134-0.012c0.408-0.074,0.679-0.464,0.605-0.871c-0.262-1.449-0.258-2.902-0.254-4.44   c0.001-0.445,0.003-0.89-0.003-1.335c-0.003-0.199-0.064-0.356-0.122-0.487c-0.083-2.412-0.1-4.592,0.34-6.734   c0.376-0.16,0.845-0.283,1.162-0.09c0.384,0.235,0.624,0.955,0.659,1.975c0.056,1.604,0.081,3.21,0.107,4.815l0.028,1.726   c0.021,1.122,0.037,2.244,0.054,3.366l0.014,0.957c0.006,0.411,0.341,0.739,0.75,0.739c0.004,0,0.008,0,0.011,0   c0.415-0.006,0.745-0.347,0.739-0.761l-0.014-0.958c-0.017-1.124-0.033-2.247-0.054-3.371l-0.029-1.723   c-0.012-0.745-0.034-1.491-0.049-2.236c0.077-0.002,0.153,0.004,0.23-0.007c0.723-0.11,0.925-0.082,0.971-0.061   c0.114,0.111,0.259,0.788,0.313,1.044c0.208,0.973,0.205,1.945,0.202,2.976c-0.001,0.271-0.002,0.543,0.001,0.815   c0.009,0.751,0.002,1.501-0.005,2.251c-0.017,2.033-0.035,4.136,0.249,6.232c0.397,2.942,0.317,5.302-0.253,7.424   c-0.556,2.071-0.799,3.713-0.786,5.322c0.002,0.305,0.017,0.61,0.03,0.916c0.037,0.808,0.072,1.57-0.119,2.291   c-0.106,0.4,0.132,0.812,0.531,0.918c0.065,0.018,0.13,0.025,0.193,0.025c0.332,0,0.636-0.222,0.725-0.557   c0.252-0.945,0.209-1.861,0.169-2.747c-0.014-0.286-0.027-0.573-0.029-0.858c-0.012-1.468,0.215-2.986,0.735-4.922   c0.623-2.32,0.715-4.867,0.29-8.014C28.436,31.553,28.453,29.505,28.47,27.524z"/></g><g><path d="M35.53,27.524c-0.006-0.76-0.014-1.521-0.004-2.281c0.002-0.264,0.002-0.528,0-0.793c-0.002-1.064-0.006-2.165,0.236-3.295   c0.406-1.896,0.895-2.472,2.975-2.152c0.012,0.002,0.026-0.001,0.039,0c0.01-0.372,0.012-0.744,0.023-1.116   c0.057-1.6,0.52-2.677,1.375-3.202c0.422-0.257,1.1-0.459,2.063-0.178c0.182-0.382,0.451-0.684,0.666-0.922   c0.092-0.103,0.184-0.203,0.268-0.31c0.398-0.511,1.211-0.796,1.994-0.347c0.994,0.569,1.718,1.53,2.105,2.755   c1.58-0.598,2.086-0.062,2.852,1.351l0.146,0.271c0.592,1.076,0.803,2.152,0.611,3.112c-0.184,0.909-0.129,1.838-0.07,2.822   c0.033,0.576,0.068,1.172,0.055,1.771c-0.004,0.114,0.02,0.239,0.027,0.357c0.77-0.272,1.5-0.401,2.133-0.022   c0.828,0.496,1.051,1.65,1.156,2.715l0.045,0.391c0.043,0.364,0.09,0.741,0.084,1.133c-0.006,0.575,0.113,1.151,0.24,1.762   c0.096,0.466,0.195,0.947,0.24,1.446c0.121,1.363-0.295,2.629-0.697,3.853l-0.203,0.63c-0.49,1.543-1.236,3.021-2.223,4.391   c-2.043,2.84-2.547,5.504-1.584,8.386c0.066,0.199,0.051,0.378,0.041,0.495c0,0.414-0.336,0.75-0.75,0.75s-0.75-0.336-0.75-0.75   c0-0.034,0.002-0.069,0.004-0.116c-1.068-3.296-0.473-6.45,1.82-9.64c0.893-1.242,1.57-2.577,2.01-3.967l0.211-0.647   c0.371-1.129,0.721-2.195,0.627-3.25c-0.037-0.412-0.123-0.831-0.215-1.275c-0.139-0.661-0.279-1.346-0.271-2.085   c0.004-0.294-0.033-0.606-0.074-0.936l-0.047-0.42c-0.133-1.334-0.385-1.548-0.434-1.577c-0.091-0.054-0.369-0.046-1.137,0.252l0,0   c0.123,0.604,0.252,1.229,0.285,1.871l0.037,0.638c0.068,1.101,0.141,2.239-0.172,3.393c-0.533,1.965-1.963,3.437-4.369,4.496   c-0.742,0.328-1.262,0.821-1.859,1.392c0,0.015-0.002,0.03-0.004,0.045c-0.008,0.109-0.02,0.218-0.039,0.315   c-0.074,0.354-0.387,0.598-0.734,0.598c-0.051,0-0.102-0.005-0.152-0.016c-0.406-0.084-0.666-0.48-0.582-0.887   c0.008-0.041,0.01-0.088,0.014-0.135c0.021-0.246,0.051-0.618,0.348-0.896l0.105-0.101c0.645-0.615,1.313-1.252,2.299-1.688   c1.994-0.878,3.115-1.996,3.527-3.517c0.246-0.913,0.186-1.882,0.121-2.906l-0.037-0.658c-0.027-0.525-0.139-1.067-0.258-1.641   c-0.146-0.72-0.301-1.463-0.283-2.214c0.014-0.538-0.018-1.077-0.053-1.647c-0.061-1.035-0.123-2.106,0.098-3.204   c0.152-0.77-0.162-1.565-0.455-2.097l-0.15-0.276c-0.193-0.357-0.414-0.763-0.486-0.821c-0.043-0.013-0.228,0.018-0.756,0.251   c0.105,1.004,0.095,2.051,0.076,3.07l-0.006,0.426c-0.039,2.838-0.084,5.681-0.129,8.52c-0.008,0.414-0.34,0.744-0.762,0.738   c-0.414-0.007-0.746-0.348-0.738-0.762c0.045-2.839,0.09-5.68,0.129-8.519l0.008-0.43c0.02-1.098,0.039-2.233-0.105-3.241   c-0.104-0.742-0.451-2.087-1.682-2.786c-0.102,0.133-0.217,0.262-0.334,0.391c-0.4,0.445-0.533,0.629-0.467,0.937   c0.527,2.404,0.496,4.771,0.406,7.391c-0.006,0.19-0.064,0.343-0.119,0.471c-0.004,0.406-0.004,0.813-0.002,1.221   c0.004,1.538,0.008,3.128-0.277,4.711c-0.066,0.363-0.383,0.617-0.738,0.617c-0.043,0-0.088-0.004-0.133-0.012   c-0.408-0.074-0.68-0.464-0.605-0.871c0.262-1.449,0.258-2.902,0.254-4.44c-0.002-0.445-0.004-0.89,0.002-1.335   c0.004-0.199,0.064-0.356,0.123-0.487c0.082-2.412,0.1-4.592-0.34-6.734c-0.377-0.16-0.846-0.283-1.162-0.09   c-0.385,0.235-0.625,0.955-0.66,1.975c-0.055,1.604-0.08,3.21-0.107,4.815l-0.027,1.726c-0.021,1.122-0.037,2.244-0.055,3.366   l-0.014,0.957c-0.006,0.411-0.34,0.739-0.75,0.739c-0.004,0-0.008,0-0.01,0c-0.416-0.006-0.746-0.347-0.74-0.761l0.014-0.958   c0.018-1.124,0.033-2.247,0.055-3.371l0.029-1.723c0.012-0.745,0.033-1.491,0.049-2.236c-0.076-0.002-0.152,0.004-0.23-0.007   c-0.723-0.11-0.924-0.082-0.971-0.061c-0.113,0.111-0.258,0.788-0.313,1.044c-0.209,0.973-0.205,1.945-0.203,2.976   c0.002,0.271,0.002,0.543,0,0.815c-0.01,0.751-0.002,1.501,0.004,2.251c0.018,2.033,0.035,4.136-0.248,6.232   c-0.398,2.942-0.318,5.302,0.252,7.424c0.557,2.071,0.799,3.713,0.787,5.322c-0.002,0.305-0.018,0.61-0.031,0.916   c-0.037,0.808-0.072,1.57,0.119,2.291c0.107,0.4-0.131,0.812-0.531,0.918c-0.064,0.018-0.129,0.025-0.193,0.025   c-0.332,0-0.635-0.222-0.725-0.557c-0.252-0.945-0.209-1.861-0.168-2.747c0.014-0.286,0.027-0.573,0.029-0.858   c0.012-1.468-0.215-2.986-0.736-4.922c-0.623-2.32-0.715-4.867-0.289-8.014C35.565,31.553,35.548,29.505,35.53,27.524z"/></g></svg>