<svg width="295" height="205" viewBox="0 0 295 205" fill="none" xmlns="http://www.w3.org/2000/svg">
<path d="M35.7 0C35.7 0 35.5 2.6 33 2.9C35.5 3.2 35.7 5.8 35.7 5.8C35.7 5.8 35.9 3.2 38.4 2.9C35.9 2.7 35.7 0 35.7 0Z" fill="#FFD08A"/>
<path d="M169.7 41C169.7 41 169.5 43.6 167 43.9C169.5 44.2 169.7 46.8 169.7 46.8C169.7 46.8 169.9 44.2 172.4 43.9C169.9 43.7 169.7 41 169.7 41Z" fill="#FFD08A"/>
<path d="M71.7 31C71.7 31 71.5 33.6 69 33.9C71.5 34.2 71.7 36.8 71.7 36.8C71.7 36.8 71.9 34.2 74.4 33.9C71.9 33.7 71.7 31 71.7 31Z" fill="#FFD08A"/>
<path d="M291.7 100C291.7 100 291.5 102.6 289 102.9C291.5 103.2 291.7 105.8 291.7 105.8C291.7 105.8 291.9 103.2 294.4 102.9C291.8 102.7 291.7 100 291.7 100Z" fill="#FFD08A"/>
<path d="M175.3 159.6C175.3 159.6 175.1 162.2 172.6 162.5C175.1 162.8 175.3 165.4 175.3 165.4C175.3 165.4 175.5 162.8 178 162.5C175.4 162.3 175.3 159.6 175.3 159.6Z" fill="#FFD08A"/>
<path d="M131.1 70C131.1 70 130.6 77 124 77.6C130.6 78.3 131.1 85.2 131.1 85.2C131.1 85.2 131.6 78.2 138.2 77.6C131.6 77 131.1 70 131.1 70Z" fill="#FFD08A"/>
<path d="M7.1 58.7C7.1 58.7 6.6 65.7 0 66.3C6.6 67 7.1 73.9 7.1 73.9C7.1 73.9 7.6 66.9 14.2 66.3C7.6 65.7 7.1 58.7 7.1 58.7Z" fill="#FFD08A"/>
<path d="M124.2 0C124.2 0 123.8 5.1 119 5.6C123.8 6.1 124.2 11.2 124.2 11.2C124.2 11.2 124.6 6.1 129.4 5.6C124.6 5 124.2 0 124.2 0Z" fill="#FFD08A"/>
<path d="M50.6 95C50.6 95 50.3 99.5 46 100C50.3 100.4 50.6 105 50.6 105C50.6 105 50.9 100.5 55.2 100C51 99.5 50.6 95 50.6 95Z" fill="#FFD08A"/>
<path d="M91.5 194.9C91.5 194.9 91.2 199.4 86.9 199.9C91.2 200.3 91.5 204.9 91.5 204.9C91.5 204.9 91.8 200.4 96.1 199.9C91.8 199.4 91.5 194.9 91.5 194.9Z" fill="#FFD08A"/>
</svg>
