<?xml version="1.0" encoding="UTF-8"?>
<svg width="700pt" height="700pt" version="1.1" viewBox="0 0 700 700" xmlns="http://www.w3.org/2000/svg" xmlns:xlink="http://www.w3.org/1999/xlink">
 <defs>
  <symbol id="r" overflow="visible">
   <path d="m27.578-1.6562c-1.418 0.74219-2.8984 1.2969-4.4375 1.6719-1.543 0.375-3.1523 0.5625-4.8281 0.5625-5 0-8.9648-1.3945-11.891-4.1875-2.918-2.7891-4.375-6.582-4.375-11.375 0-4.7891 1.457-8.582 4.375-11.375 2.9258-2.8008 6.8906-4.2031 11.891-4.2031 1.6758 0 3.2852 0.1875 4.8281 0.5625 1.5391 0.375 3.0195 0.93359 4.4375 1.6719v6.2188c-1.4297-0.97656-2.8398-1.6953-4.2344-2.1562-1.3984-0.45703-2.8672-0.6875-4.4062-0.6875-2.7617 0-4.9336 0.88672-6.5156 2.6562-1.5859 1.7734-2.375 4.2109-2.375 7.3125 0 3.1055 0.78906 5.543 2.375 7.3125 1.582 1.7617 3.7539 2.6406 6.5156 2.6406 1.5391 0 3.0078-0.22266 4.4062-0.67188 1.3945-0.45703 2.8047-1.1758 4.2344-2.1562z"/>
  </symbol>
  <symbol id="c" overflow="visible">
   <path d="m20.188-16.391c-0.63672-0.28906-1.2656-0.50391-1.8906-0.64062-0.61719-0.14453-1.2422-0.21875-1.875-0.21875-1.8438 0-3.2656 0.59375-4.2656 1.7812s-1.5 2.8867-1.5 5.0938v10.375h-7.2031v-22.516h7.2031v3.7031c0.92578-1.4766 1.9883-2.5547 3.1875-3.2344 1.1953-0.67578 2.6328-1.0156 4.3125-1.0156 0.23828 0 0.5 0.011719 0.78125 0.03125 0.28125 0.023438 0.6875 0.070312 1.2188 0.14062z"/>
  </symbol>
  <symbol id="a" overflow="visible">
   <path d="m25.938-11.312v2.0469h-16.828c0.17578 1.6875 0.78516 2.9531 1.8281 3.7969 1.0391 0.84375 2.5 1.2656 4.375 1.2656 1.5195 0 3.0703-0.22266 4.6562-0.67188 1.5938-0.44531 3.2266-1.1289 4.9062-2.0469v5.5625c-1.7109 0.63672-3.418 1.1172-5.125 1.4375-1.6992 0.33203-3.3984 0.5-5.0938 0.5-4.0742 0-7.2422-1.0312-9.5-3.0938-2.2617-2.0703-3.3906-4.9766-3.3906-8.7188 0-3.6758 1.1094-6.5664 3.3281-8.6719 2.2188-2.1016 5.2695-3.1562 9.1562-3.1562 3.5391 0 6.375 1.0703 8.5 3.2031 2.125 2.125 3.1875 4.9766 3.1875 8.5469zm-7.4062-2.3906c0-1.375-0.40234-2.4766-1.2031-3.3125-0.79297-0.84375-1.8281-1.2656-3.1094-1.2656-1.3984 0-2.5312 0.39844-3.4062 1.1875-0.86719 0.78125-1.4062 1.9141-1.625 3.3906z"/>
  </symbol>
  <symbol id="g" overflow="visible">
   <path d="m13.547-10.125c-1.5 0-2.6328 0.25781-3.3906 0.76562-0.75 0.5-1.125 1.25-1.125 2.25 0 0.90625 0.30078 1.6211 0.90625 2.1406 0.61328 0.51172 1.4609 0.76562 2.5469 0.76562 1.3516 0 2.4883-0.48438 3.4062-1.4531 0.92578-0.96875 1.3906-2.1875 1.3906-3.6562v-0.8125zm11-2.7188v12.844h-7.2656v-3.3438c-0.96094 1.375-2.043 2.375-3.25 3-1.2109 0.61328-2.6797 0.92188-4.4062 0.92188-2.3359 0-4.2305-0.67578-5.6875-2.0312-1.4492-1.3633-2.1719-3.1289-2.1719-5.2969 0-2.6445 0.90625-4.582 2.7188-5.8125 1.8203-1.2383 4.6758-1.8594 8.5625-1.8594h4.2344v-0.5625c0-1.1328-0.44922-1.9688-1.3438-2.5-0.89844-0.53125-2.2969-0.79688-4.2031-0.79688-1.543 0-2.9766 0.15625-4.2969 0.46875-1.3242 0.3125-2.5586 0.77734-3.7031 1.3906v-5.4844c1.5391-0.375 3.0859-0.66016 4.6406-0.85938 1.5625-0.19531 3.1172-0.29688 4.6719-0.29688 4.0625 0 6.9922 0.80469 8.7969 2.4062 1.8008 1.6055 2.7031 4.2109 2.7031 7.8125z"/>
  </symbol>
  <symbol id="b" overflow="visible">
   <path d="m11.312-28.906v6.3906h7.4219v5.1406h-7.4219v9.5625c0 1.043 0.20703 1.75 0.625 2.125 0.41406 0.36719 1.2422 0.54688 2.4844 0.54688h3.6875v5.1406h-6.1719c-2.8438 0-4.8594-0.59375-6.0469-1.7812-1.1797-1.1875-1.7656-3.1953-1.7656-6.0312v-9.5625h-3.5781v-5.1406h3.5781v-6.3906z"/>
  </symbol>
  <symbol id="f" overflow="visible">
   <path d="m18.781-19.219v-12.062h7.2344v31.281h-7.2344v-3.25c-1 1.3242-2.1016 2.293-3.2969 2.9062-1.1875 0.61328-2.5625 0.92188-4.125 0.92188-2.7734 0-5.0547-1.0977-6.8438-3.2969-1.7812-2.207-2.6719-5.0469-2.6719-8.5156s0.89062-6.3047 2.6719-8.5156c1.7891-2.207 4.0703-3.3125 6.8438-3.3125 1.5508 0 2.9258 0.3125 4.125 0.9375 1.1953 0.625 2.2969 1.5938 3.2969 2.9062zm-4.75 14.578c1.5391 0 2.7188-0.5625 3.5312-1.6875s1.2188-2.7578 1.2188-4.9062c0-2.1445-0.40625-3.7812-1.2188-4.9062s-1.9922-1.6875-3.5312-1.6875c-1.5312 0-2.7031 0.5625-3.5156 1.6875-0.80469 1.125-1.2031 2.7617-1.2031 4.9062 0 2.1484 0.39844 3.7812 1.2031 4.9062 0.8125 1.125 1.9844 1.6875 3.5156 1.6875z"/>
  </symbol>
  <symbol id="e" overflow="visible">
   <path d="m15.438-4.6406c1.5391 0 2.7188-0.5625 3.5312-1.6875s1.2188-2.7578 1.2188-4.9062c0-2.1445-0.40625-3.7812-1.2188-4.9062s-1.9922-1.6875-3.5312-1.6875c-1.543 0-2.7266 0.57031-3.5469 1.7031-0.82422 1.125-1.2344 2.7578-1.2344 4.8906 0 2.125 0.41016 3.7578 1.2344 4.8906 0.82031 1.1367 2.0039 1.7031 3.5469 1.7031zm-4.7812-14.578c0.98828-1.3125 2.0859-2.2812 3.2969-2.9062 1.207-0.625 2.5938-0.9375 4.1562-0.9375 2.7812 0 5.0625 1.1055 6.8438 3.3125 1.7812 2.2109 2.6719 5.0469 2.6719 8.5156s-0.89062 6.3086-2.6719 8.5156c-1.7812 2.1992-4.0625 3.2969-6.8438 3.2969-1.5625 0-2.9492-0.30859-4.1562-0.92188-1.2109-0.625-2.3086-1.5938-3.2969-2.9062v3.25h-7.2031v-31.281h7.2031z"/>
  </symbol>
  <symbol id="i" overflow="visible">
   <path d="m0.5-22.516h7.2031l6.0469 15.281 5.1406-15.281h7.2031l-9.4688 24.641c-0.94922 2.5078-2.0586 4.2656-3.3281 5.2656-1.2617 1-2.9336 1.5-5.0156 1.5h-4.1562v-4.7344h2.25c1.2188 0 2.1016-0.19531 2.6562-0.57812 0.5625-0.38672 0.99219-1.0859 1.2969-2.0938l0.20312-0.625z"/>
  </symbol>
  <symbol id="h" overflow="visible">
   <path d="m15.797-18.391c1.2188 0 2.1406-0.26562 2.7656-0.79688 0.63281-0.53906 0.95312-1.3359 0.95312-2.3906 0-1.0312-0.32031-1.8164-0.95312-2.3594-0.625-0.53906-1.5469-0.8125-2.7656-0.8125h-4.2812v6.3594zm0.26562 13.125c1.5508 0 2.7188-0.32812 3.5-0.98438 0.78906-0.65625 1.1875-1.6484 1.1875-2.9844 0-1.2891-0.39062-2.2578-1.1719-2.9062-0.77344-0.65625-1.9453-0.98438-3.5156-0.98438h-4.5469v7.8594zm7.2031-10.797c1.6562 0.48047 2.9375 1.3711 3.8438 2.6719 0.91406 1.3047 1.375 2.8984 1.375 4.7812 0 2.8984-0.98047 5.0586-2.9375 6.4844-1.9609 1.418-4.9336 2.125-8.9219 2.125h-12.844v-30.016h11.625c4.1641 0 7.1797 0.63281 9.0469 1.8906 1.875 1.2617 2.8125 3.2773 2.8125 6.0469 0 1.4688-0.34375 2.7148-1.0312 3.7344-0.6875 1.0234-1.6797 1.7812-2.9688 2.2812z"/>
  </symbol>
  <symbol id="d" overflow="visible">
   <path d="m26.094-13.703v13.703h-7.2344v-10.5c0-1.9375-0.046875-3.2734-0.14062-4.0156-0.085938-0.73828-0.23047-1.2812-0.4375-1.625-0.28125-0.46875-0.66797-0.83203-1.1562-1.0938-0.48047-0.25781-1.0273-0.39062-1.6406-0.39062-1.5 0-2.6836 0.57812-3.5469 1.7344-0.85547 1.1562-1.2812 2.7617-1.2812 4.8125v11.078h-7.2031v-22.516h7.2031v3.2969c1.082-1.3125 2.2344-2.2812 3.4531-2.9062s2.5664-0.9375 4.0469-0.9375c2.5938 0 4.5625 0.79688 5.9062 2.3906 1.3516 1.5938 2.0312 3.918 2.0312 6.9688z"/>
  </symbol>
  <symbol id="q" overflow="visible">
   <path d="m3.7812-30.016h7.7344v24.172h13.594v5.8438h-21.328z"/>
  </symbol>
  <symbol id="p" overflow="visible">
   <path d="m3.4531-31.281h7.2031v17.031l8.2812-8.2656h8.3594l-11 10.328 11.875 12.188h-8.7344l-8.7812-9.3906v9.3906h-7.2031z"/>
  </symbol>
  <symbol id="o" overflow="visible">
   <path d="m3.4531-22.516h7.2031v22.516h-7.2031zm0-8.7656h7.2031v5.875h-7.2031z"/>
  </symbol>
  <symbol id="n" overflow="visible">
   <path d="m18.281-31.281v4.7188h-3.9844c-1.0234 0-1.7344 0.1875-2.1406 0.5625-0.39844 0.36719-0.59375 1.0078-0.59375 1.9219v1.5625h6.1562v5.1406h-6.1562v17.375h-7.2031v-17.375h-3.5781v-5.1406h3.5781v-1.5625c0-2.457 0.67969-4.2695 2.0469-5.4375 1.375-1.1758 3.4922-1.7656 6.3594-1.7656z"/>
  </symbol>
  <symbol id="m" overflow="visible">
   <path d="m26.094-13.703v13.703h-7.2344v-10.453c0-1.9688-0.046875-3.3203-0.14062-4.0625-0.085938-0.73828-0.23047-1.2812-0.4375-1.625-0.28125-0.46875-0.66797-0.83203-1.1562-1.0938-0.48047-0.25781-1.0273-0.39062-1.6406-0.39062-1.5 0-2.6836 0.57812-3.5469 1.7344-0.85547 1.1562-1.2812 2.7617-1.2812 4.8125v11.078h-7.2031v-31.281h7.2031v12.062c1.082-1.3125 2.2344-2.2812 3.4531-2.9062s2.5664-0.9375 4.0469-0.9375c2.5938 0 4.5625 0.79688 5.9062 2.3906 1.3516 1.5938 2.0312 3.918 2.0312 6.9688z"/>
  </symbol>
  <symbol id="l" overflow="visible">
   <path d="m3.7812-30.016h8.6406l10.922 20.594v-20.594h7.3281v30.016h-8.6406l-10.906-20.594v20.594h-7.3438z"/>
  </symbol>
  <symbol id="k" overflow="visible">
   <path d="m3.7812-30.016h12.844c3.8203 0 6.7539 0.85156 8.7969 2.5469 2.0391 1.6992 3.0625 4.1172 3.0625 7.25 0 3.1484-1.0234 5.5703-3.0625 7.2656-2.043 1.6992-4.9766 2.5469-8.7969 2.5469h-5.1094v10.406h-7.7344zm7.7344 5.6094v8.3906h4.2812c1.5 0 2.6562-0.36328 3.4688-1.0938 0.82031-0.73828 1.2344-1.7734 1.2344-3.1094 0-1.3438-0.41406-2.375-1.2344-3.0938-0.8125-0.72656-1.9688-1.0938-3.4688-1.0938z"/>
  </symbol>
  <symbol id="j" overflow="visible">
   <path d="m3.4531-22.516h7.2031v22.109c0 3.0195-0.72656 5.3203-2.1719 6.9062-1.4492 1.5938-3.5469 2.3906-6.2969 2.3906h-3.5469v-4.7344h1.2344c1.375 0 2.3125-0.30859 2.8125-0.92188 0.50781-0.61719 0.76562-1.8281 0.76562-3.6406zm0-8.7656h7.2031v5.875h-7.2031z"/>
  </symbol>
 </defs>
 <g>
  <path d="m350 91.328c-9.9492 0.023437-19.496-3.9102-26.539-10.934-7.043-7.0234-11.008-16.562-11.016-26.508-0.003906-9.9492 3.9414-19.488 10.977-26.523 7.0352-7.0352 16.574-10.98 26.523-10.977 9.9453 0.007812 19.484 3.9727 26.508 11.016 7.0234 7.043 10.957 16.59 10.934 26.539-0.019531 9.9102-3.9648 19.406-10.973 26.414-7.0078 7.0078-16.504 10.953-26.414 10.973zm0-58.387c-5.5742-0.023437-10.93 2.1719-14.883 6.1016-3.9531 3.9297-6.1836 9.2695-6.1992 14.844s2.1875 10.926 6.1211 14.875c3.9336 3.9492 9.2773 6.1719 14.852 6.1797 5.5742 0.007813 10.922-2.2031 14.867-6.1406 3.9453-3.9414 6.1602-9.2852 6.1602-14.859 0-5.5547-2.2031-10.883-6.1211-14.82-3.9219-3.9375-9.2422-6.1562-14.797-6.1797z"/>
  <path d="m350 452.28c-9.9492 0.023438-19.496-3.9102-26.539-10.934-7.043-7.0234-11.008-16.562-11.016-26.508-0.003906-9.9492 3.9414-19.488 10.977-26.523s16.574-10.98 26.523-10.977c9.9453 0.007812 19.484 3.9727 26.508 11.016s10.957 16.59 10.934 26.539c0 9.9141-3.9375 19.426-10.949 26.438s-16.523 10.949-26.438 10.949zm0-58.387c-5.5742-0.023437-10.93 2.1719-14.883 6.1016-3.9531 3.9297-6.1836 9.2695-6.1992 14.844-0.015625 5.5742 2.1875 10.926 6.1211 14.875 3.9336 3.9492 9.2773 6.1719 14.852 6.1797 5.5742 0.007813 10.922-2.2031 14.867-6.1406 3.9453-3.9414 6.1602-9.2852 6.1602-14.859 0-5.5547-2.2031-10.883-6.1211-14.82-3.9219-3.9375-9.2422-6.1602-14.797-6.1797z"/>
  <path d="m350 91.328c-9.9492 0.023437-19.496-3.9102-26.539-10.934-7.043-7.0234-11.008-16.562-11.016-26.508-0.003906-9.9492 3.9414-19.488 10.977-26.523 7.0352-7.0352 16.574-10.98 26.523-10.977 9.9453 0.007812 19.484 3.9727 26.508 11.016 7.0234 7.043 10.957 16.59 10.934 26.539-0.019531 9.9102-3.9648 19.406-10.973 26.414-7.0078 7.0078-16.504 10.953-26.414 10.973zm0-58.387c-5.5742-0.023437-10.93 2.1719-14.883 6.1016-3.9531 3.9297-6.1836 9.2695-6.1992 14.844s2.1875 10.926 6.1211 14.875c3.9336 3.9492 9.2773 6.1719 14.852 6.1797 5.5742 0.007813 10.922-2.2031 14.867-6.1406 3.9453-3.9414 6.1602-9.2852 6.1602-14.859 0-5.5547-2.2031-10.883-6.1211-14.82-3.9219-3.9375-9.2422-6.1562-14.797-6.1797z"/>
  <path d="m350 452.28c-9.9492 0.023438-19.496-3.9102-26.539-10.934-7.043-7.0234-11.008-16.562-11.016-26.508-0.003906-9.9492 3.9414-19.488 10.977-26.523s16.574-10.98 26.523-10.977c9.9453 0.007812 19.484 3.9727 26.508 11.016s10.957 16.59 10.934 26.539c0 9.9141-3.9375 19.426-10.949 26.438s-16.523 10.949-26.438 10.949zm0-58.387c-5.5742-0.023437-10.93 2.1719-14.883 6.1016-3.9531 3.9297-6.1836 9.2695-6.1992 14.844-0.015625 5.5742 2.1875 10.926 6.1211 14.875 3.9336 3.9492 9.2773 6.1719 14.852 6.1797 5.5742 0.007813 10.922-2.2031 14.867-6.1406 3.9453-3.9414 6.1602-9.2852 6.1602-14.859 0-5.5547-2.2031-10.883-6.1211-14.82-3.9219-3.9375-9.2422-6.1602-14.797-6.1797z"/>
  <path d="m288.32 102.2c-9.2031 0.042969-18.098-3.3008-24.992-9.3945-6.8945-6.0977-11.305-14.516-12.391-23.656-1.0859-9.1367 1.2266-18.355 6.5039-25.895 5.2734-7.543 13.141-12.879 22.098-14.992 8.957-2.1133 18.379-0.85938 26.469 3.5273 8.0898 4.3867 14.281 11.598 17.395 20.258 4.1211 11.449 2.4219 24.188-4.5547 34.16-6.9727 9.9727-18.355 15.938-30.527 15.992zm0-58.387c-5.0469-0.011719-9.9297 1.8008-13.754 5.0977-3.8203 3.2969-6.3281 7.8594-7.0625 12.855-0.73047 4.9961 0.35938 10.086 3.0781 14.344 2.7148 4.2539 6.8711 7.3906 11.711 8.8281 4.8398 1.4414 10.035 1.0898 14.633-0.98828 4.6016-2.0781 8.3008-5.7422 10.418-10.324 2.3672-5.0234 2.5742-10.797 0.57812-15.977-1.4688-4.0469-4.1445-7.543-7.6641-10.016-3.5195-2.4766-7.7148-3.8086-12.02-3.8203z"/>
  <path d="m411.68 441.41c-5.4336-0.003906-10.797-1.1836-15.73-3.457-10.57-4.9102-18.254-14.457-20.789-25.832-2.5352-11.375 0.36719-23.281 7.8477-32.215 7.4844-8.9336 18.699-13.875 30.344-13.371 11.645 0.5 22.391 6.3945 29.074 15.938 6.6836 9.5469 8.5469 21.66 5.0391 32.773-3.5078 11.113-11.984 19.965-22.938 23.941-4.125 1.4688-8.4727 2.2227-12.848 2.2227zm0-58.387c-2.4492-0.011719-4.8789 0.4375-7.1641 1.3164-5.2266 1.8945-9.4844 5.7891-11.832 10.828-2.3477 5.0352-2.5938 10.801-0.6875 16.02 1.832 5.2383 5.7305 9.4961 10.789 11.777 5.0312 2.375 10.801 2.6523 16.035 0.76172 5.2344-1.8906 9.5-5.7852 11.852-10.828 2.3555-5.043 2.6016-10.816 0.6875-16.039-1.9141-5.2344-5.8203-9.5-10.871-11.859-2.7305-1.2852-5.707-1.957-8.7266-1.9766z"/>
  <path d="m288.32 102.2c-9.2031 0.042969-18.098-3.3008-24.992-9.3945-6.8945-6.0977-11.305-14.516-12.391-23.656-1.0859-9.1367 1.2266-18.355 6.5039-25.895 5.2734-7.543 13.141-12.879 22.098-14.992 8.957-2.1133 18.379-0.85938 26.469 3.5273 8.0898 4.3867 14.281 11.598 17.395 20.258 4.1211 11.449 2.4219 24.188-4.5547 34.16-6.9727 9.9727-18.355 15.938-30.527 15.992zm0-58.387c-5.0469-0.011719-9.9297 1.8008-13.754 5.0977-3.8203 3.2969-6.3281 7.8594-7.0625 12.855-0.73047 4.9961 0.35938 10.086 3.0781 14.344 2.7148 4.2539 6.8711 7.3906 11.711 8.8281 4.8398 1.4414 10.035 1.0898 14.633-0.98828 4.6016-2.0781 8.3008-5.7422 10.418-10.324 2.3672-5.0234 2.5742-10.797 0.57812-15.977-1.4688-4.0469-4.1445-7.543-7.6641-10.016-3.5195-2.4766-7.7148-3.8086-12.02-3.8203z"/>
  <path d="m411.68 441.41c-5.4336-0.003906-10.797-1.1836-15.73-3.457-10.57-4.9102-18.254-14.457-20.789-25.832-2.5352-11.375 0.36719-23.281 7.8477-32.215 7.4844-8.9336 18.699-13.875 30.344-13.371 11.645 0.5 22.391 6.3945 29.074 15.938 6.6836 9.5469 8.5469 21.66 5.0391 32.773-3.5078 11.113-11.984 19.965-22.938 23.941-4.125 1.4688-8.4727 2.2227-12.848 2.2227zm0-58.387c-2.4492-0.011719-4.8789 0.4375-7.1641 1.3164-5.2266 1.8945-9.4844 5.7891-11.832 10.828-2.3477 5.0352-2.5938 10.801-0.6875 16.02 1.832 5.2383 5.7305 9.4961 10.789 11.777 5.0312 2.375 10.801 2.6523 16.035 0.76172 5.2344-1.8906 9.5-5.7852 11.852-10.828 2.3555-5.043 2.6016-10.816 0.6875-16.039-1.9141-5.2344-5.8203-9.5-10.871-11.859-2.7305-1.2852-5.707-1.957-8.7266-1.9766z"/>
  <path d="m234.05 133.58h-3.293c-12.496-1.0391-23.641-8.2578-29.703-19.234-6.0586-10.977-6.2266-24.258-0.44531-35.383 5.7773-11.125 16.738-18.625 29.203-19.977 12.465-1.3555 24.781 3.6133 32.816 13.238 6.1172 7.3125 9.2188 16.688 8.6719 26.207-0.55078 9.5195-4.7109 18.473-11.629 25.035-6.9219 6.5586-16.086 10.234-25.621 10.277zm0-58.387v-0.003906c-4.8828-0.019531-9.6133 1.7031-13.34 4.8594-5.0273 4.1797-7.8203 10.461-7.5547 16.988 0.26172 6.5312 3.5508 12.566 8.8945 16.328s12.133 4.8242 18.371 2.8672c6.2344-1.9531 11.203-6.7031 13.445-12.84 2.2383-6.1406 1.4922-12.973-2.0195-18.484s-9.3906-9.0742-15.902-9.6367z"/>
  <path d="m466.04 410.04c-12.773-0.011718-24.656-6.5391-31.512-17.312-6.8594-10.777-7.7422-24.309-2.3398-35.883 5.3984-11.574 16.332-19.59 28.996-21.262 12.66-1.668 25.301 3.2422 33.516 13.023 6.1367 7.3086 9.25 16.688 8.6953 26.219-0.55469 9.5273-4.7344 18.484-11.68 25.031-6.9453 6.5469-16.129 10.191-25.676 10.184zm0-58.305c-6.3672 0.12891-12.332 3.1523-16.195 8.2148-3.8672 5.0586-5.2188 11.605-3.668 17.785 1.5469 6.1797 5.8281 11.312 11.625 13.953 5.7969 2.6367 12.48 2.4883 18.156-0.40234s9.7266-8.2109 11-14.449c1.2773-6.2422-0.35938-12.723-4.4453-17.609-4.0898-4.8867-10.184-7.6484-16.555-7.4922z"/>
  <path d="m234.05 133.58h-3.293c-12.496-1.0391-23.641-8.2578-29.703-19.234-6.0586-10.977-6.2266-24.258-0.44531-35.383 5.7773-11.125 16.738-18.625 29.203-19.977 12.465-1.3555 24.781 3.6133 32.816 13.238 6.1172 7.3125 9.2188 16.688 8.6719 26.207-0.55078 9.5195-4.7109 18.473-11.629 25.035-6.9219 6.5586-16.086 10.234-25.621 10.277zm0-58.387v-0.003906c-4.8828-0.019531-9.6133 1.7031-13.34 4.8594-5.0273 4.1797-7.8203 10.461-7.5547 16.988 0.26172 6.5312 3.5508 12.566 8.8945 16.328s12.133 4.8242 18.371 2.8672c6.2344-1.9531 11.203-6.7031 13.445-12.84 2.2383-6.1406 1.4922-12.973-2.0195-18.484s-9.3906-9.0742-15.902-9.6367z"/>
  <path d="m466.04 410.04c-12.773-0.011718-24.656-6.5391-31.512-17.312-6.8594-10.777-7.7422-24.309-2.3398-35.883 5.3984-11.574 16.332-19.59 28.996-21.262 12.66-1.668 25.301 3.2422 33.516 13.023 6.1367 7.3086 9.25 16.688 8.6953 26.219-0.55469 9.5273-4.7344 18.484-11.68 25.031-6.9453 6.5469-16.129 10.191-25.676 10.184zm0-58.305c-6.3672 0.12891-12.332 3.1523-16.195 8.2148-3.8672 5.0586-5.2188 11.605-3.668 17.785 1.5469 6.1797 5.8281 11.312 11.625 13.953 5.7969 2.6367 12.48 2.4883 18.156-0.40234s9.7266-8.2109 11-14.449c1.2773-6.2422-0.35938-12.723-4.4453-17.609-4.0898-4.8867-10.184-7.6484-16.555-7.4922z"/>
  <path d="m193.53 181.59c-11.676 0.03125-22.699-5.3789-29.812-14.633-7.1172-9.2539-9.5117-21.297-6.4805-32.566 3.0312-11.273 11.141-20.492 21.938-24.93s23.047-3.5898 33.129 2.293c8.6523 4.9062 14.949 13.105 17.461 22.727 2.5664 9.5781 1.2227 19.785-3.7383 28.371-4.957 8.5859-13.121 14.852-22.699 17.418-3.1914 0.88281-6.4883 1.3281-9.7969 1.3203zm0-58.059c-5.9844 0.066406-11.656 2.6914-15.574 7.2109-3.9219 4.5234-5.7148 10.508-4.9336 16.441 0.78516 5.9336 4.0703 11.246 9.0273 14.598 4.9609 3.3477 11.117 4.4141 16.914 2.9258 5.3789-1.4258 9.9648-4.9375 12.75-9.7539s3.5312-10.547 2.082-15.918-4.9805-9.9453-9.8086-12.707c-3.1836-1.832-6.7891-2.7969-10.457-2.7969z"/>
  <path d="m506.47 362.35c-11.664 0.007813-22.668-5.418-29.766-14.68-7.0938-9.2578-9.4727-21.297-6.4297-32.559 3.0391-11.262 11.152-20.465 21.945-24.895s23.035-3.582 33.109 2.3008c8.6094 4.8945 14.875 13.062 17.379 22.645 2.5898 9.5898 1.2578 19.816-3.7031 28.422-4.957 8.6055-13.137 14.883-22.734 17.449-3.1992 0.84766-6.4883 1.2891-9.8008 1.3164zm0-58.387c-5.9805 0.066406-11.652 2.6914-15.57 7.2148-3.9219 4.5195-5.7188 10.504-4.9336 16.438 0.78125 5.9336 4.0703 11.246 9.0273 14.598 4.9609 3.3516 11.117 4.4141 16.914 2.9258 5.3477-1.457 9.9023-4.9688 12.672-9.7695 2.7695-4.8008 3.5273-10.504 2.1133-15.863-1.418-5.3594-4.8984-9.9375-9.6797-12.742-3.1875-1.9219-6.8203-2.9727-10.543-3.0469z"/>
  <path d="m193.53 181.59c-11.676 0.03125-22.699-5.3789-29.812-14.633-7.1172-9.2539-9.5117-21.297-6.4805-32.566 3.0312-11.273 11.141-20.492 21.938-24.93s23.047-3.5898 33.129 2.293c8.6523 4.9062 14.949 13.105 17.461 22.727 2.5664 9.5781 1.2227 19.785-3.7383 28.371-4.957 8.5859-13.121 14.852-22.699 17.418-3.1914 0.88281-6.4883 1.3281-9.7969 1.3203zm0-58.059c-5.9844 0.066406-11.656 2.6914-15.574 7.2109-3.9219 4.5234-5.7148 10.508-4.9336 16.441 0.78516 5.9336 4.0703 11.246 9.0273 14.598 4.9609 3.3477 11.117 4.4141 16.914 2.9258 5.3789-1.4258 9.9648-4.9375 12.75-9.7539s3.5312-10.547 2.082-15.918-4.9805-9.9453-9.8086-12.707c-3.1836-1.832-6.7891-2.7969-10.457-2.7969z"/>
  <path d="m506.47 362.35c-11.664 0.007813-22.668-5.418-29.766-14.68-7.0938-9.2578-9.4727-21.297-6.4297-32.559 3.0391-11.262 11.152-20.465 21.945-24.895s23.035-3.582 33.109 2.3008c8.6094 4.8945 14.875 13.062 17.379 22.645 2.5898 9.5898 1.2578 19.816-3.7031 28.422-4.957 8.6055-13.137 14.883-22.734 17.449-3.1992 0.84766-6.4883 1.2891-9.8008 1.3164zm0-58.387c-5.9805 0.066406-11.652 2.6914-15.57 7.2148-3.9219 4.5195-5.7188 10.504-4.9336 16.438 0.78125 5.9336 4.0703 11.246 9.0273 14.598 4.9609 3.3516 11.117 4.4141 16.914 2.9258 5.3477-1.457 9.9023-4.9688 12.672-9.7695 2.7695-4.8008 3.5273-10.504 2.1133-15.863-1.418-5.3594-4.8984-9.9375-9.6797-12.742-3.1875-1.9219-6.8203-2.9727-10.543-3.0469z"/>
  <path d="m172.36 240.47c-2.207 0.015625-4.4141-0.17969-6.5859-0.57422-9.7734-1.7461-18.457-7.293-24.152-15.43-5.6953-8.1328-7.9375-18.188-6.2383-27.973 1.7266-9.7773 7.2734-18.469 15.414-24.152 8.1445-5.6875 18.211-7.8984 27.988-6.1523 9.75 1.7461 18.414 7.2852 24.094 15.402 5.6797 8.1211 7.9141 18.156 6.2109 27.918-1.5078 8.6523-6.0156 16.496-12.734 22.16-6.7148 5.6602-15.211 8.7773-23.996 8.8008zm0-58.387c-4.2969 0.019531-8.4883 1.3398-12.023 3.7891-5.3477 3.7383-8.6562 9.75-8.9492 16.273-0.28906 6.5195 2.4648 12.805 7.457 17.008 4.9961 4.1992 11.66 5.8438 18.035 4.4414 6.3711-1.4023 11.734-5.6875 14.504-11.598s2.6328-12.77-0.36719-18.566c-3-5.7969-8.5234-9.8672-14.949-11.02-1.2734-0.24219-2.5703-0.35156-3.8711-0.32812z"/>
  <path d="m527.8 303.14c-2.1836 0.011719-4.3594-0.17969-6.5078-0.57422-13.238-2.3242-24.234-11.539-28.84-24.164-4.6055-12.629-2.125-26.758 6.5078-37.059 8.6328-10.305 22.105-15.223 35.344-12.898 12.059 2.5391 22.098 10.844 26.852 22.211 4.7539 11.371 3.6133 24.348-3.0469 34.715-6.6602 10.367-17.992 16.793-30.309 17.195zm0-58.387c-4.3008 0.015625-8.4922 1.3359-12.023 3.7891-5.5742 4.0977-8.7617 10.688-8.5156 17.602 0.25 6.9141 3.9023 13.262 9.7539 16.949 5.8555 3.6875 13.156 4.2422 19.5 1.4805s10.91-8.4805 12.203-15.281c0.99219-5.4414-0.25391-11.055-3.4609-15.562-3.2383-4.4219-8.0938-7.3828-13.504-8.2383-1.3281-0.34375-2.6758-0.58984-4.0352-0.73828z"/>
  <path d="m172.36 240.47c-2.207 0.015625-4.4141-0.17969-6.5859-0.57422-9.7734-1.7461-18.457-7.293-24.152-15.43-5.6953-8.1328-7.9375-18.188-6.2383-27.973 1.7266-9.7773 7.2734-18.469 15.414-24.152 8.1445-5.6875 18.211-7.8984 27.988-6.1523 9.75 1.7461 18.414 7.2852 24.094 15.402 5.6797 8.1211 7.9141 18.156 6.2109 27.918-1.5078 8.6523-6.0156 16.496-12.734 22.16-6.7148 5.6602-15.211 8.7773-23.996 8.8008zm0-58.387c-4.2969 0.019531-8.4883 1.3398-12.023 3.7891-5.3477 3.7383-8.6562 9.75-8.9492 16.273-0.28906 6.5195 2.4648 12.805 7.457 17.008 4.9961 4.1992 11.66 5.8438 18.035 4.4414 6.3711-1.4023 11.734-5.6875 14.504-11.598s2.6328-12.77-0.36719-18.566c-3-5.7969-8.5234-9.8672-14.949-11.02-1.2734-0.24219-2.5703-0.35156-3.8711-0.32812z"/>
  <path d="m527.8 303.14c-2.1836 0.011719-4.3594-0.17969-6.5078-0.57422-13.238-2.3242-24.234-11.539-28.84-24.164-4.6055-12.629-2.125-26.758 6.5078-37.059 8.6328-10.305 22.105-15.223 35.344-12.898 12.059 2.5391 22.098 10.844 26.852 22.211 4.7539 11.371 3.6133 24.348-3.0469 34.715-6.6602 10.367-17.992 16.793-30.309 17.195zm0-58.387c-4.3008 0.015625-8.4922 1.3359-12.023 3.7891-5.5742 4.0977-8.7617 10.688-8.5156 17.602 0.25 6.9141 3.9023 13.262 9.7539 16.949 5.8555 3.6875 13.156 4.2422 19.5 1.4805s10.91-8.4805 12.203-15.281c0.99219-5.4414-0.25391-11.055-3.4609-15.562-3.2383-4.4219-8.0938-7.3828-13.504-8.2383-1.3281-0.34375-2.6758-0.58984-4.0352-0.73828z"/>
  <path d="m172.2 303.14c-8.7969-0.003906-17.312-3.1133-24.047-8.7773-6.7305-5.6641-11.254-13.52-12.766-22.188-1.6758-9.7695 0.57812-19.805 6.2695-27.918 5.6953-8.1172 14.363-13.652 24.121-15.398 13.238-2.3242 26.715 2.5898 35.348 12.895 8.6328 10.305 11.109 24.43 6.5039 37.059-4.6055 12.629-15.602 21.84-28.84 24.164-2.1875 0.25391-4.3906 0.30859-6.5898 0.16406zm-3.543-57.648h0.003906c-5.4805 0.96484-10.355 4.0664-13.551 8.6211-3.1953 4.5547-4.4531 10.191-3.4961 15.676 1.3164 6.7812 5.9023 12.473 12.246 15.211 6.3438 2.7344 13.629 2.1641 19.465-1.5273 5.8398-3.6953 9.4805-10.031 9.7227-16.938 0.24609-6.9023-2.9336-13.484-8.4922-17.582-4.5586-3.168-10.18-4.4102-15.648-3.4609z"/>
  <path d="m527.72 240.47c-12.461-0.17969-24.012-6.5586-30.805-17.008-6.793-10.445-7.9336-23.594-3.0391-35.055s15.176-19.73 27.418-22.055c13.242-2.3242 26.715 2.5938 35.348 12.898 8.6328 10.301 11.113 24.43 6.5078 37.059-4.6094 12.625-15.602 21.836-28.844 24.16-2.1914 0.20312-4.3945 0.20312-6.5859 0zm0-58.387c-1.207-0.12109-2.418-0.12109-3.625 0-5.4727 0.97266-10.332 4.0859-13.508 8.6484-3.1758 4.5625-4.4023 10.199-3.4141 15.668 0.98828 5.4727 4.1133 10.324 8.6875 13.484 4.5391 3.2109 10.18 4.457 15.648 3.457 5.4648-0.98047 10.316-4.0898 13.496-8.6445 3.1797-4.5508 4.4258-10.18 3.4648-15.648-0.86328-4.8359-3.3984-9.2148-7.1602-12.375-3.7617-3.1602-8.5117-4.8984-13.426-4.918z"/>
  <path d="m172.2 303.14c-8.7969-0.003906-17.312-3.1133-24.047-8.7773-6.7305-5.6641-11.254-13.52-12.766-22.188-1.6758-9.7695 0.57812-19.805 6.2695-27.918 5.6953-8.1172 14.363-13.652 24.121-15.398 13.238-2.3242 26.715 2.5898 35.348 12.895 8.6328 10.305 11.109 24.43 6.5039 37.059-4.6055 12.629-15.602 21.84-28.84 24.164-2.1875 0.25391-4.3906 0.30859-6.5898 0.16406zm-3.543-57.648h0.003906c-5.4805 0.96484-10.355 4.0664-13.551 8.6211-3.1953 4.5547-4.4531 10.191-3.4961 15.676 1.3164 6.7812 5.9023 12.473 12.246 15.211 6.3438 2.7344 13.629 2.1641 19.465-1.5273 5.8398-3.6953 9.4805-10.031 9.7227-16.938 0.24609-6.9023-2.9336-13.484-8.4922-17.582-4.5586-3.168-10.18-4.4102-15.648-3.4609z"/>
  <path d="m527.72 240.47c-12.461-0.17969-24.012-6.5586-30.805-17.008-6.793-10.445-7.9336-23.594-3.0391-35.055s15.176-19.73 27.418-22.055c13.242-2.3242 26.715 2.5938 35.348 12.898 8.6328 10.301 11.113 24.43 6.5078 37.059-4.6094 12.625-15.602 21.836-28.844 24.16-2.1914 0.20312-4.3945 0.20312-6.5859 0zm0-58.387c-1.207-0.12109-2.418-0.12109-3.625 0-5.4727 0.97266-10.332 4.0859-13.508 8.6484-3.1758 4.5625-4.4023 10.199-3.4141 15.668 0.98828 5.4727 4.1133 10.324 8.6875 13.484 4.5391 3.2109 10.18 4.457 15.648 3.457 5.4648-0.98047 10.316-4.0898 13.496-8.6445 3.1797-4.5508 4.4258-10.18 3.4648-15.648-0.86328-4.8359-3.3984-9.2148-7.1602-12.375-3.7617-3.1602-8.5117-4.8984-13.426-4.918z"/>
  <path d="m193.53 362.35c-3.2852 0.007813-6.5547-0.43359-9.7188-1.3164-9.5781-2.5938-17.734-8.8789-22.684-17.477-4.9492-8.6016-6.2891-18.812-3.7188-28.398 2.5703-9.582 8.8359-17.754 17.426-22.727 8.6055-4.9336 18.816-6.2578 28.398-3.6719 9.5781 2.582 17.742 8.8555 22.699 17.449 4.957 8.5938 6.3086 18.805 3.75 28.391-2.1875 7.9297-6.8984 14.93-13.426 19.938-6.5234 5.0078-14.504 7.75-22.727 7.8125zm0-58.387c-3.6719 0.003906-7.2773 0.96875-10.461 2.8008-4.8164 2.7656-8.3398 7.3242-9.8008 12.68-1.4883 5.3594-0.74609 11.094 2.0586 15.895 2.7852 4.8203 7.3633 8.3359 12.738 9.7812 5.375 1.4453 11.102 0.69531 15.922-2.082 4.8242-2.7734 8.3477-7.3516 9.8008-12.723 1.4102-5.3984 0.64063-11.137-2.1406-15.977-1.8164-3.2109-4.4492-5.8828-7.6289-7.75-3.1836-1.8633-6.8008-2.8555-10.488-2.8711z"/>
  <path d="m506.47 181.59c-3.2812 0.011718-6.5547-0.42969-9.7148-1.3203-9.8047-2.3984-18.195-8.707-23.223-17.457-4.9492-8.5938-6.2812-18.805-3.6992-28.379 2.5781-9.5742 8.8555-17.734 17.449-22.68 11.523-5.9805 25.32-5.5742 36.469 1.082 11.148 6.6523 18.059 18.605 18.262 31.586s-6.3242 25.141-17.258 32.145c-5.5703 3.1953-11.863 4.9258-18.285 5.0234zm-10.621-55.59c-4.8398 2.7422-8.375 7.3125-9.8164 12.684s-0.66406 11.098 2.1562 15.895c2.7578 4.8438 7.3438 8.3789 12.73 9.8203 5.3828 1.4375 11.121 0.66016 15.93-2.1641 6.4727-3.75 10.453-10.668 10.441-18.152-0.015624-7.4805-4.0156-14.387-10.5-18.117-6.4883-3.7305-14.469-3.7148-20.941 0.035156z"/>
  <path d="m193.53 362.35c-3.2852 0.007813-6.5547-0.43359-9.7188-1.3164-9.5781-2.5938-17.734-8.8789-22.684-17.477-4.9492-8.6016-6.2891-18.812-3.7188-28.398 2.5703-9.582 8.8359-17.754 17.426-22.727 8.6055-4.9336 18.816-6.2578 28.398-3.6719 9.5781 2.582 17.742 8.8555 22.699 17.449 4.957 8.5938 6.3086 18.805 3.75 28.391-2.1875 7.9297-6.8984 14.93-13.426 19.938-6.5234 5.0078-14.504 7.75-22.727 7.8125zm0-58.387c-3.6719 0.003906-7.2773 0.96875-10.461 2.8008-4.8164 2.7656-8.3398 7.3242-9.8008 12.68-1.4883 5.3594-0.74609 11.094 2.0586 15.895 2.7852 4.8203 7.3633 8.3359 12.738 9.7812 5.375 1.4453 11.102 0.69531 15.922-2.082 4.8242-2.7734 8.3477-7.3516 9.8008-12.723 1.4102-5.3984 0.64063-11.137-2.1406-15.977-1.8164-3.2109-4.4492-5.8828-7.6289-7.75-3.1836-1.8633-6.8008-2.8555-10.488-2.8711z"/>
  <path d="m506.47 181.59c-3.2812 0.011718-6.5547-0.42969-9.7148-1.3203-9.8047-2.3984-18.195-8.707-23.223-17.457-4.9492-8.5938-6.2812-18.805-3.6992-28.379 2.5781-9.5742 8.8555-17.734 17.449-22.68 11.523-5.9805 25.32-5.5742 36.469 1.082 11.148 6.6523 18.059 18.605 18.262 31.586s-6.3242 25.141-17.258 32.145c-5.5703 3.1953-11.863 4.9258-18.285 5.0234zm-10.621-55.59c-4.8398 2.7422-8.375 7.3125-9.8164 12.684s-0.66406 11.098 2.1562 15.895c2.7578 4.8438 7.3438 8.3789 12.73 9.8203 5.3828 1.4375 11.121 0.66016 15.93-2.1641 6.4727-3.75 10.453-10.668 10.441-18.152-0.015624-7.4805-4.0156-14.387-10.5-18.117-6.4883-3.7305-14.469-3.7148-20.941 0.035156z"/>
  <path d="m233.88 410.12c-9.5547 0.003906-18.75-3.6484-25.695-10.215-6.9492-6.5625-11.117-15.535-11.652-25.078-0.53516-9.5391 2.6016-18.926 8.7695-26.223 6.3828-7.6289 15.539-12.402 25.449-13.262 9.875-0.87891 19.695 2.2344 27.258 8.6484 7.543 6.3984 12.246 15.516 13.094 25.367 0.84766 9.8555-2.2383 19.641-8.5781 27.23-6.3398 7.5898-15.422 12.363-25.27 13.285zm0-58.387h-1.8945c-5.5469 0.41016-10.688 3.0547-14.246 7.3281-3.5352 4.2852-5.25 9.7852-4.7773 15.316 0.41016 5.5469 3.0547 10.691 7.3281 14.25 4.2539 3.6094 9.7773 5.3633 15.336 4.8672 5.5547-0.49609 10.684-3.1992 14.23-7.5039 3.418-4.0859 5.1484-9.3203 4.8398-14.637-0.30859-5.3164-2.6367-10.316-6.5039-13.977-3.8672-3.6641-8.9883-5.7109-14.312-5.7266z"/>
  <path d="m465.95 133.58c-8.8086 0.011719-17.332-3.1133-24.047-8.8125-7.5742-6.3984-12.305-15.539-13.152-25.418-0.85156-9.8789 2.25-19.691 8.6211-27.289 8.0469-9.5352 20.316-14.43 32.715-13.047 12.398 1.3789 23.289 8.8516 29.043 19.922 5.75 11.07 5.5977 24.281-0.39844 35.219-6 10.938-17.062 18.16-29.488 19.258zm-15.977-51.227c-3.5586 4.2695-5.2852 9.7734-4.8047 15.309 0.47656 5.5352 3.1211 10.66 7.3594 14.258 4.25 3.5508 9.7344 5.2734 15.254 4.7852 5.5195-0.48828 10.617-3.1445 14.18-7.3906 3.5625-4.2422 5.293-9.7266 4.8164-15.246-0.47656-5.5195-3.1211-10.625-7.3594-14.195-4.2344-3.5703-9.7148-5.3125-15.234-4.8477-5.5195 0.46484-10.633 3.1016-14.211 7.3281z"/>
  <path d="m233.88 410.12c-9.5547 0.003906-18.75-3.6484-25.695-10.215-6.9492-6.5625-11.117-15.535-11.652-25.078-0.53516-9.5391 2.6016-18.926 8.7695-26.223 6.3828-7.6289 15.539-12.402 25.449-13.262 9.875-0.87891 19.695 2.2344 27.258 8.6484 7.543 6.3984 12.246 15.516 13.094 25.367 0.84766 9.8555-2.2383 19.641-8.5781 27.23-6.3398 7.5898-15.422 12.363-25.27 13.285zm0-58.387h-1.8945c-5.5469 0.41016-10.688 3.0547-14.246 7.3281-3.5352 4.2852-5.25 9.7852-4.7773 15.316 0.41016 5.5469 3.0547 10.691 7.3281 14.25 4.2539 3.6094 9.7773 5.3633 15.336 4.8672 5.5547-0.49609 10.684-3.1992 14.23-7.5039 3.418-4.0859 5.1484-9.3203 4.8398-14.637-0.30859-5.3164-2.6367-10.316-6.5039-13.977-3.8672-3.6641-8.9883-5.7109-14.312-5.7266z"/>
  <path d="m465.95 133.58c-8.8086 0.011719-17.332-3.1133-24.047-8.8125-7.5742-6.3984-12.305-15.539-13.152-25.418-0.85156-9.8789 2.25-19.691 8.6211-27.289 8.0469-9.5352 20.316-14.43 32.715-13.047 12.398 1.3789 23.289 8.8516 29.043 19.922 5.75 11.07 5.5977 24.281-0.39844 35.219-6 10.938-17.062 18.16-29.488 19.258zm-15.977-51.227c-3.5586 4.2695-5.2852 9.7734-4.8047 15.309 0.47656 5.5352 3.1211 10.66 7.3594 14.258 4.25 3.5508 9.7344 5.2734 15.254 4.7852 5.5195-0.48828 10.617-3.1445 14.18-7.3906 3.5625-4.2422 5.293-9.7266 4.8164-15.246-0.47656-5.5195-3.1211-10.625-7.3594-14.195-4.2344-3.5703-9.7148-5.3125-15.234-4.8477-5.5195 0.46484-10.633 3.1016-14.211 7.3281z"/>
  <path d="m288.23 441.41c-4.375-0.015625-8.7188-0.76562-12.848-2.2227-9.293-3.3438-16.879-10.246-21.082-19.188-4.1875-9.0117-4.6328-19.32-1.2344-28.66 3.1484-8.5977 9.3398-15.746 17.406-20.082 8.0664-4.3359 17.441-5.5625 26.352-3.4453s16.73 7.4336 21.984 14.934c5.25 7.5039 7.5664 16.672 6.5078 25.77-1.0625 9.0938-5.4219 17.484-12.258 23.582-6.8359 6.0938-15.668 9.4648-24.828 9.4805zm0-58.387c-3.0469-0.003907-6.0586 0.67187-8.8125 1.9766-5.0273 2.3477-8.9297 6.5781-10.867 11.777-1.9102 5.207-1.6758 10.961 0.65625 15.992 2.332 5.0352 6.5703 8.9375 11.777 10.848 5.207 1.9102 10.961 1.6719 15.996-0.66016 5.0312-2.332 8.9336-6.5664 10.844-11.773 1.9102-5.207 1.6758-10.961-0.65625-15.996-2.3281-5.0312-6.5625-8.9336-11.773-10.848-2.2852-0.87891-4.7148-1.3281-7.1641-1.3164z"/>
  <path d="m411.68 102.2c-4.3594 0.003906-8.6836-0.77734-12.766-2.3047-9.3281-3.3789-16.926-10.336-21.117-19.328-4.1875-8.9961-4.6211-19.289-1.1992-28.602 3.3984-9.3164 10.352-16.906 19.336-21.105 8.9844-4.1953 19.266-4.6641 28.594-1.293 11.086 4.0781 19.598 13.148 22.969 24.473 3.3711 11.32 1.207 23.57-5.8438 33.051-7.0508 9.4805-18.16 15.082-29.973 15.109zm0-58.387c-3.0469 0.007812-6.0547 0.67969-8.8125 1.9766-5.0586 2.3242-8.9492 6.6055-10.789 11.859-1.9727 5.2188-1.7383 11.016 0.66016 16.059 2.9453 6.3906 8.8945 10.879 15.844 11.961 6.9531 1.0781 13.984-1.3945 18.73-6.5859 4.7461-5.1953 6.5742-12.422 4.8711-19.25-1.7031-6.8242-6.7109-12.348-13.34-14.703-2.2969-0.84375-4.7188-1.2891-7.1641-1.3164z"/>
  <path d="m288.23 441.41c-4.375-0.015625-8.7188-0.76562-12.848-2.2227-9.293-3.3438-16.879-10.246-21.082-19.188-4.1875-9.0117-4.6328-19.32-1.2344-28.66 3.1484-8.5977 9.3398-15.746 17.406-20.082 8.0664-4.3359 17.441-5.5625 26.352-3.4453s16.73 7.4336 21.984 14.934c5.25 7.5039 7.5664 16.672 6.5078 25.77-1.0625 9.0938-5.4219 17.484-12.258 23.582-6.8359 6.0938-15.668 9.4648-24.828 9.4805zm0-58.387c-3.0469-0.003907-6.0586 0.67187-8.8125 1.9766-5.0273 2.3477-8.9297 6.5781-10.867 11.777-1.9102 5.207-1.6758 10.961 0.65625 15.992 2.332 5.0352 6.5703 8.9375 11.777 10.848 5.207 1.9102 10.961 1.6719 15.996-0.66016 5.0312-2.332 8.9336-6.5664 10.844-11.773 1.9102-5.207 1.6758-10.961-0.65625-15.996-2.3281-5.0312-6.5625-8.9336-11.773-10.848-2.2852-0.87891-4.7148-1.3281-7.1641-1.3164z"/>
  <path d="m411.68 102.2c-4.3594 0.003906-8.6836-0.77734-12.766-2.3047-9.3281-3.3789-16.926-10.336-21.117-19.328-4.1875-8.9961-4.6211-19.289-1.1992-28.602 3.3984-9.3164 10.352-16.906 19.336-21.105 8.9844-4.1953 19.266-4.6641 28.594-1.293 11.086 4.0781 19.598 13.148 22.969 24.473 3.3711 11.32 1.207 23.57-5.8438 33.051-7.0508 9.4805-18.16 15.082-29.973 15.109zm0-58.387c-3.0469 0.007812-6.0547 0.67969-8.8125 1.9766-5.0586 2.3242-8.9492 6.6055-10.789 11.859-1.9727 5.2188-1.7383 11.016 0.66016 16.059 2.9453 6.3906 8.8945 10.879 15.844 11.961 6.9531 1.0781 13.984-1.3945 18.73-6.5859 4.7461-5.1953 6.5742-12.422 4.8711-19.25-1.7031-6.8242-6.7109-12.348-13.34-14.703-2.2969-0.84375-4.7188-1.2891-7.1641-1.3164z"/>
  <path d="m350 497.41c-4.5469 0-8.2344-3.6836-8.2344-8.2344v-45.129c0-4.5469 3.6875-8.2344 8.2344-8.2344s8.2344 3.6875 8.2344 8.2344v45.129c0 2.1836-0.86719 4.2812-2.4102 5.8242-1.5469 1.543-3.6406 2.4102-5.8242 2.4102z"/>
  <path d="m382.94 543.53h-65.059c-2.5352 0.011719-4.9336-1.1406-6.5078-3.1328-1.5586-2.0039-2.1055-4.6172-1.4805-7.082l11.117-44.555v0.003906c2.2031-8.8047 8.2344-16.16 16.441-20.043 8.2031-3.8789 17.715-3.8789 25.918 0 8.207 3.8828 14.238 11.238 16.441 20.043l11.117 44.555v-0.003906c0.625 2.4648 0.078124 5.0781-1.4844 7.082-1.5703 1.9922-3.9688 3.1445-6.5039 3.1328zm-54.52-16.469h43.977l-8.2344-34.258v-0.003907c-1.5391-6.1641-7.0742-10.484-13.422-10.484-6.3516 0-11.887 4.3203-13.426 10.484z"/>
  <use x="70" y="683.53125" xlink:href="#r"/>
  <use x="100.21875" y="683.53125" xlink:href="#c"/>
  <use x="120.527344" y="683.53125" xlink:href="#a"/>
  <use x="148.453125" y="683.53125" xlink:href="#g"/>
  <use x="176.238281" y="683.53125" xlink:href="#b"/>
  <use x="195.921875" y="683.53125" xlink:href="#a"/>
  <use x="223.847656" y="683.53125" xlink:href="#f"/>
  <use x="267.660156" y="683.53125" xlink:href="#e"/>
  <use x="297.132812" y="683.53125" xlink:href="#i"/>
  <use x="338.3125" y="683.53125" xlink:href="#h"/>
  <use x="369.695313" y="683.53125" xlink:href="#a"/>
  <use x="397.621094" y="683.53125" xlink:href="#c"/>
  <use x="417.929688" y="683.53125" xlink:href="#d"/>
  <use x="447.242188" y="683.53125" xlink:href="#f"/>
  <use x="491.054688" y="683.53125" xlink:href="#q"/>
  <use x="517.292969" y="683.53125" xlink:href="#g"/>
  <use x="545.078125" y="683.53125" xlink:href="#p"/>
  <use x="572.460938" y="683.53125" xlink:href="#a"/>
  <use x="600.386719" y="683.53125" xlink:href="#d"/>
  <use x="629.703125" y="683.53125" xlink:href="#e"/>
  <use x="659.175781" y="683.53125" xlink:href="#c"/>
  <use x="679.484375" y="683.53125" xlink:href="#o"/>
  <use x="693.597656" y="683.53125" xlink:href="#d"/>
  <use x="70" y="724.707031" xlink:href="#n"/>
  <use x="193.75" y="724.707031" xlink:href="#b"/>
  <use x="213.433594" y="724.707031" xlink:href="#m"/>
  <use x="285.011719" y="724.707031" xlink:href="#l"/>
  <use x="420.722656" y="724.707031" xlink:href="#k"/>
  <use x="499.496094" y="724.707031" xlink:href="#j"/>
  <use x="565.945312" y="724.707031" xlink:href="#b"/>
 </g>
</svg>
